<svg 
	id="802de3e1-6d90-44d6-a0b1-a734ce76c2be" 
	data-name="Layer shop more icon" 
	xmlns="http://www.w3.org/2000/svg" 
	width="81.75" 
	height="40.94" 
	viewBox="0 0 81.75 40.94">
	<title>cart-banner-shop-more</title>
	<path 
		d="M220.81,264.78a26.06,26.06,0,0,0-6.8-7.66c1.83-.17,6,2.36,8.16,5.64,1.84-6.95-8-10.91-13-8.86C209.76,262.38,215.56,265.51,220.81,264.78Z"
		transform="translate(-209.18 -230.08)" 
		fill="#48b7ad"/>
	<path 
		d="M229.67,249.13h38.16l-2.26,17.22a3.16,3.16,0,0,1-3.14,2.76H235.35a3.16,3.16,0,0,1-3.13-2.71Z" 
		transform="translate(-209.18 -230.08)" 
		fill="none" 
		stroke="#48b7ad" 
		stroke-linecap="round" 
		stroke-linejoin="round" 
		stroke-width="3.83"/>
	<line 
		x1="18.7" 
		y1="19.05" 
		x2="60.05" 
		y2="19.05" 
		fill="none" 
		stroke="#48b7ad" 
		stroke-linecap="round" 
		stroke-linejoin="round" 
		stroke-width="3.83"/>

	<line 
		x1="30.73" 
		y1="25.82" 
		x2="30.73" 
		y2="32.34" 
		fill="none" 
		stroke="#48b7ad" 
		stroke-linecap="round" 
		stroke-linejoin="round" 
		stroke-width="3.83"/>
	<line
		x1="39.69"
		y1="25.82"
		x2="39.69"
		y2="32.34"
		fill="none"
		stroke="#48b7ad"
		stroke-linecap="round"
		stroke-linejoin="round" 
		stroke-width="3.83"/>
	<line 
		x1="48.42" 
		y1="25.82" 
		x2="48.42" 
		y2="32.34" 
		fill="none" 
		stroke="#48b7ad" 
		stroke-linecap="round" 
		stroke-linejoin="round" 
		stroke-width="3.83"/>
		<line 
			x1="35.52" 
			y1="5.76" 
			x2="24.55" 
			y2="19.05" 
			fill="none" 
			stroke="#48b7ad" 
			stroke-linecap="round" 
			stroke-linejoin="round" 
			stroke-width="3.83"/>
		<line 
			x1="43.88" 
			y1="5.76" 
			x2="54.85" 
			y2="19.05" 
			fill="none" 
			stroke="#48b7ad" 
			stroke-linecap="round" 
			stroke-linejoin="round" 
			stroke-width="3.83"/>
			
		<path 
			d="M276.29,257c.33-.27,3.44-2.21,9.61-2.66-1.69-1.16-6.83-2.11-11-.05,4-7.06,12.37-3.1,16.07,1.37C285.7,263.52,280.32,261.31,276.29,257Z" 
			transform="translate(-209.18 -230.08)" 
			fill="#48b7ad"/>
		<path 
			d="M268.79,242.15l-.31.08c-.4-4,4.7-9.17,4.44-9.63-3.38.58-6,4.48-6.77,7.34a8.89,8.89,0,0,1,5.3-9.34,10.38,10.38,0,0,1,5.63-.26,12.63,12.63,0,0,1,.11,2.37C276.61,237.48,274,241.09,268.79,242.15Z" 
			transform="translate(-209.18 -230.08)" 
			fill="#48b7ad"/>
</svg>
