<?xml version="1.0" encoding="utf-8"?>
<!-- Generator: Adobe Illustrator 19.2.1, SVG Export Plug-In . SVG Version: 6.00 Build 0)  -->
<svg version="1.1" id="Layer_3" xmlns="http://www.w3.org/2000/svg" xmlns:xlink="http://www.w3.org/1999/xlink" x="0px" y="0px"
	 viewBox="0 0 85 85" style="enable-background:new 0 0 85 85;" xml:space="preserve">
<style type="text/css">
	.st0{fill:#F2F2F2;}
	.st1{fill:#1C1C1C;}
	.st2{fill:#009689;}
	.st3{fill:#4FB551;}
	.st4{fill:#41BCB2;}
	.st5{fill:#404041;}
	.st6{fill:#008080;}
	.st7{display:none;}
	.st8{display:inline;}
	.st9{fill:#303030;}
	.st10{fill:#B0B0B0;}
	.st11{fill:#C4C4C4;}
	.st12{fill:none;stroke:#C4C4C4;stroke-width:1.5;stroke-linecap:round;stroke-linejoin:round;stroke-miterlimit:10;}
	.st13{fill:#3E6B84;}
	.st14{fill:#FFFFFF;}
	.st15{fill:none;stroke:#B3B3B3;stroke-width:2;stroke-miterlimit:10;}
	.st16{fill:#333333;}
	.st17{fill:none;stroke:#FFFFFF;stroke-width:1.5;stroke-linecap:round;stroke-linejoin:round;stroke-miterlimit:22.9256;}
	.st18{fill:#028080;}
	.st19{fill:none;stroke:#008080;stroke-width:2.5;stroke-linecap:round;stroke-linejoin:round;stroke-miterlimit:22.9256;}
	.st20{fill:none;stroke:#BABABA;stroke-width:0.5;stroke-miterlimit:10;}
	.st21{clip-path:url(#SVGID_10_);}
	.st22{fill:#FFFFFF;stroke:#BCBCBC;stroke-miterlimit:10;}
	.st23{fill:#CCCCCC;}
	.st24{fill:none;stroke:#FFFFFF;stroke-width:2;stroke-miterlimit:10;}
	.st25{fill:none;stroke:#BCBCBC;stroke-miterlimit:10;}
	.st26{fill:#FDF1F0;}
	.st27{opacity:0.6;}
	.st28{fill:#009F9E;}
	.st29{fill:none;stroke:#028080;stroke-width:2.5;stroke-linecap:round;stroke-miterlimit:10;}
	.st30{fill:none;stroke:#028080;stroke-width:2.5;stroke-linecap:round;stroke-linejoin:round;stroke-miterlimit:10;}
	.st31{fill:#FFFFFF;stroke:#028080;stroke-width:2.5;stroke-linecap:round;stroke-linejoin:round;stroke-miterlimit:10;}
</style>
<image style="display:none;overflow:visible;" width="1903" height="2601" xlink:href="19117E67.png"  transform="matrix(1.0087 0 0 1.0087 -96.41 64.9454)">
</image>
<path class="st14" d="M79.1,10.3c-3.8-3.1-9.5-2.5-12.6,1.3L31.2,55.3L17,44.4c-4-3-9.6-2.3-12.6,1.7c-3,3.9-2.3,9.6,1.7,12.6
	l21.2,16.2c0.1,0.1,0.3,0.2,0.4,0.3c0,0,0.1,0.1,0.1,0.1c0.1,0.1,0.3,0.2,0.5,0.3c0.1,0,0.2,0.1,0.2,0.1c0.1,0.1,0.2,0.1,0.4,0.2
	c0.1,0.1,0.2,0.1,0.3,0.2c0.1,0,0.2,0.1,0.3,0.1c0.1,0,0.2,0.1,0.4,0.1c0.1,0,0.2,0.1,0.3,0.1c0.1,0,0.2,0.1,0.4,0.1
	c0.1,0,0.3,0.1,0.4,0.1c0.1,0,0.2,0,0.3,0.1c0.2,0,0.4,0.1,0.6,0.1c0,0,0.1,0,0.1,0c0.2,0,0.5,0,0.7,0c0,0,0,0,0,0c0,0,0,0,0,0
	c0.7,0,1.3-0.1,2-0.2c0,0,0.1,0,0.1,0c0.3-0.1,0.6-0.1,0.9-0.2c0.1,0,0.1-0.1,0.2-0.1c0.2-0.1,0.5-0.2,0.7-0.3
	c0.1,0,0.2-0.1,0.3-0.2c0.2-0.1,0.4-0.2,0.6-0.3c0.1-0.1,0.2-0.2,0.3-0.2c0.2-0.1,0.3-0.2,0.5-0.4c0.1-0.1,0.2-0.2,0.3-0.3
	c0.1-0.1,0.3-0.3,0.4-0.4c0.1-0.1,0.2-0.2,0.3-0.3c0.1-0.1,0.2-0.2,0.3-0.4l40.7-50.4C83.5,19.1,82.9,13.4,79.1,10.3z"/>
</svg>
