<?xml version="1.0" encoding="utf-8"?>
<!-- Generator: Adobe Illustrator 18.0.0, SVG Export Plug-In . SVG Version: 6.00 Build 0)  -->
<!DOCTYPE svg PUBLIC "-//W3C//DTD SVG 1.1//EN" "http://www.w3.org/Graphics/SVG/1.1/DTD/svg11.dtd">
<svg version="1.1" id="Layer_1" xmlns="http://www.w3.org/2000/svg" xmlns:xlink="http://www.w3.org/1999/xlink" x="0px" y="0px"
	 width="30px" height="15px" viewBox="0 0 30 15" enable-background="new 0 0 30 15" xml:space="preserve">
<g>
	<path fill="#48B7AD" d="M27.9,15H2.1C0.9,15,0,14.1,0,12.9V2.1C0,0.9,0.9,0,2.1,0h25.9C29.1,0,30,0.9,30,2.1v10.9
		C30,14.1,29.1,15,27.9,15z"/>
	<g>
		<path fill="#FFFFFF" d="M9.4,4.8h1.2v5.5H9.4L6.8,6.8v3.4H5.6V4.8h1.1l2.7,3.5V4.8z"/>
		<path fill="#FFFFFF" d="M15.9,4.8v1.1h-2.7V7h2.4v1h-2.4v1.1H16v1.1h-4V4.8H15.9z"/>
		<path fill="#FFFFFF" d="M18.8,7.9l1-3.1H21l1,3.1l1.1-3.1h1.3l-1.9,5.5h-0.9l-1.2-3.8l-1.2,3.8h-0.9l-1.9-5.5h1.3L18.8,7.9z"/>
	</g>
</g>
</svg>
