<?xml version="1.0" encoding="utf-8"?>
<!-- Generator: Adobe Illustrator 16.0.3, SVG Export Plug-In . SVG Version: 6.00 Build 0)  -->
<!DOCTYPE svg PUBLIC "-//W3C//DTD SVG 1.1//EN" "http://www.w3.org/Graphics/SVG/1.1/DTD/svg11.dtd">
<svg version="1.1" id="Layer_1" xmlns="http://www.w3.org/2000/svg" xmlns:xlink="http://www.w3.org/1999/xlink" x="0px" y="0px"
	 width="137.75px" height="14px" viewBox="0 0 137.75 14" enable-background="new 0 0 137.75 14" xml:space="preserve">
<g>
	<g>
		<g>
			<path fill="#09988B" d="M132.475,2.65v1.7h-0.3v-1.7h-0.601v-0.3h1.5v0.3H132.475z"/>
			<path fill="#09988B" d="M133.775,4.35h-0.3v-2h0.5l0.6,1.2l0.601-1.2h0.5v2h-0.301v-1.5l-0.699,1.399h-0.2l-0.7-1.399V4.35
				L133.775,4.35z"/>
		</g>
	</g>
	<g>
		<path fill="#09988B" d="M4.275,8.75l-0.8,1.801h-1.4l3.4-7.7h1.4l3.4,7.7h-1.4l-0.8-1.801H4.275z M7.575,7.55l-1.4-3.2l-1.4,3.2
			H7.575z"/>
		<path fill="#09988B" d="M11.575,12.85c-0.5,0-1-0.2-1.5-0.601l0.6-1c0.3,0.2,0.5,0.4,0.8,0.4c0.3,0,0.5-0.1,0.7-0.3
			c0.2-0.2,0.3-0.4,0.3-0.7c0-0.1-0.8-2.1-2.4-6h1.3l1.8,4.3l1.8-4.3h1.3l-2.8,7c-0.2,0.4-0.4,0.7-0.7,0.9
			C12.275,12.75,11.975,12.85,11.575,12.85z"/>
		<path fill="#09988B" d="M21.275,7.85v-3.2h1.2v5.9h-1.2V9.45c-0.2,0.4-0.5,0.601-0.8,0.8c-0.3,0.2-0.7,0.301-1.1,0.301
			c-0.7,0-1.2-0.2-1.6-0.601c-0.4-0.399-0.6-1-0.6-1.8v-3.6h1.2V7.75c0,1.101,0.4,1.601,1.3,1.601c0.4,0,0.8-0.101,1.1-0.4
			C21.075,8.75,21.275,8.35,21.275,7.85z"/>
		<path fill="#09988B" d="M27.375,5.85c-0.6,0-1.1,0.2-1.4,0.6c-0.3,0.4-0.5,0.9-0.5,1.601v2.5h-1.2v-5.9h1.2v1.2
			c0.2-0.4,0.5-0.7,0.8-0.9s0.7-0.399,1.1-0.399V5.85L27.375,5.85z"/>
		<path fill="#09988B" d="M30.175,10.55l-2.4-5.9h1.3l1.8,4.4l1.8-4.4h1.3l-2.4,5.9H30.175z"/>
		<path fill="#09988B" d="M40.375,8.15h-4.6c0,0.4,0.2,0.8,0.6,1c0.4,0.3,0.801,0.4,1.2,0.4c0.7,0,1.3-0.2,1.7-0.7l0.7,0.8
			c-0.601,0.7-1.5,1-2.5,1c-0.8,0-1.5-0.3-2.101-0.8c-0.6-0.5-0.899-1.3-0.899-2.2s0.3-1.7,0.899-2.2c0.601-0.5,1.301-0.8,2.101-0.8
			s1.5,0.2,2,0.7c0.6,0.5,0.8,1.1,0.8,2v0.8H40.375z M35.775,7.15h3.4c0-0.5-0.2-0.9-0.5-1.1c-0.301-0.301-0.7-0.4-1.101-0.4
			c-0.5,0-0.899,0.1-1.2,0.4C35.975,6.35,35.775,6.65,35.775,7.15z"/>
		<path fill="#09988B" d="M42.175,9.75c-0.601-0.6-0.801-1.3-0.801-2.199c0-0.9,0.301-1.601,0.801-2.2c0.6-0.5,1.199-0.8,2-0.8
			c0.8,0,1.399,0.3,1.899,1v-3.2h1.2v8.2h-1.2v-0.9c-0.5,0.6-1.1,1-2,1C43.375,10.55,42.775,10.35,42.175,9.75z M42.675,7.65
			c0,0.6,0.199,1,0.5,1.4c0.3,0.399,0.8,0.5,1.3,0.5s0.899-0.2,1.2-0.5c0.3-0.4,0.5-0.801,0.5-1.4s-0.2-1-0.5-1.4
			c-0.301-0.399-0.801-0.6-1.2-0.6c-0.5,0-0.9,0.2-1.3,0.6C42.775,6.55,42.675,7.05,42.675,7.65z"/>
		<path fill="#09988B" d="M53.975,10.55h-1.2V9.75c-0.5,0.601-1.1,0.9-2,0.9c-0.6,0-1.1-0.2-1.5-0.5s-0.6-0.8-0.6-1.4
			c0-0.6,0.199-1,0.6-1.3s1-0.399,1.7-0.399h1.6v-0.2c0-0.8-0.399-1.2-1.3-1.2c-0.5,0-1.1,0.2-1.7,0.6l-0.6-0.8
			c0.7-0.6,1.5-0.8,2.399-0.8c0.7,0,1.301,0.2,1.7,0.5c0.4,0.3,0.7,0.9,0.7,1.6v3.801H53.975z M52.675,8.35v-0.5h-1.4
			c-0.9,0-1.3,0.3-1.3,0.8c0,0.3,0.1,0.5,0.3,0.7s0.5,0.2,0.9,0.2c0.399,0,0.699-0.101,1-0.301C52.575,8.95,52.675,8.75,52.675,8.35
			z"/>
		<path fill="#09988B" d="M60.175,10.55h-1.301v-7.7h2l2.301,4.8l2.3-4.8h2v7.7h-1.3v-6l-2.7,5.3h-0.7l-2.7-5.3v6H60.175z"/>
		<path fill="#09988B" d="M74.275,10.55h-1.1V9.75c-0.5,0.601-1.101,0.9-2,0.9c-0.601,0-1.101-0.2-1.5-0.5
			c-0.4-0.3-0.601-0.8-0.601-1.4c0-0.6,0.2-1,0.601-1.3c0.399-0.3,1-0.399,1.699-0.399h1.601v-0.2c0-0.8-0.4-1.2-1.3-1.2
			c-0.5,0-1.101,0.2-1.7,0.6l-0.601-0.8c0.7-0.6,1.5-0.8,2.4-0.8c0.7,0,1.3,0.2,1.7,0.5c0.399,0.3,0.7,0.9,0.7,1.6v3.801H74.275z
			 M73.075,8.35v-0.5h-1.399c-0.9,0-1.301,0.3-1.301,0.8c0,0.3,0.101,0.5,0.301,0.7c0.199,0.2,0.5,0.2,0.899,0.2
			c0.4,0,0.7-0.101,1-0.301C72.875,8.95,73.075,8.75,73.075,8.35z"/>
		<path fill="#09988B" d="M76.475,9.75c-0.601-0.6-0.8-1.3-0.8-2.199c0-0.9,0.3-1.601,0.8-2.2c0.6-0.5,1.2-0.8,2-0.8
			s1.399,0.3,1.899,1v-3.2h1.2v8.2h-1.2v-0.9c-0.5,0.6-1.1,1-2,1C77.675,10.55,76.975,10.35,76.475,9.75z M76.875,7.65
			c0,0.6,0.2,1,0.5,1.4c0.301,0.399,0.801,0.5,1.301,0.5s0.899-0.2,1.199-0.5c0.301-0.4,0.5-0.801,0.5-1.4s-0.199-1-0.5-1.4
			c-0.3-0.399-0.8-0.6-1.199-0.6c-0.5,0-0.9,0.2-1.301,0.6C76.975,6.55,76.875,7.05,76.875,7.65z"/>
		<path fill="#09988B" d="M88.875,8.15h-4.6c0,0.4,0.2,0.8,0.6,1c0.4,0.3,0.801,0.4,1.2,0.4c0.7,0,1.3-0.2,1.7-0.7l0.7,0.8
			c-0.601,0.7-1.5,1-2.5,1c-0.8,0-1.5-0.3-2.101-0.8c-0.6-0.5-0.899-1.3-0.899-2.2s0.3-1.7,0.899-2.2c0.601-0.5,1.301-0.8,2.101-0.8
			s1.5,0.2,2,0.7c0.6,0.5,0.8,1.1,0.8,2v0.8H88.875z M84.275,7.15h3.4c0-0.5-0.2-0.9-0.5-1.1c-0.301-0.301-0.7-0.4-1.101-0.4
			c-0.399,0-0.899,0.1-1.2,0.4C84.475,6.35,84.275,6.65,84.275,7.15z"/>
		<path fill="#09988B" d="M95.775,3.85c-0.4,0-0.7,0.1-0.9,0.2C94.675,4.25,94.475,4.45,94.475,4.75c0,0.301,0.1,0.601,0.399,0.7
			c0.2,0.2,0.801,0.3,1.5,0.5c0.801,0.2,1.4,0.5,1.801,0.8c0.399,0.301,0.6,0.9,0.6,1.5c0,0.7-0.3,1.2-0.8,1.601
			c-0.5,0.399-1.2,0.6-2,0.6c-1.2,0-2.3-0.399-3.2-1.2l0.8-1c0.8,0.7,1.601,1,2.4,1c0.399,0,0.8-0.1,1-0.3s0.399-0.399,0.399-0.7
			c0-0.3-0.1-0.5-0.3-0.699c-0.2-0.2-0.6-0.301-1.2-0.5c-0.6-0.101-1-0.301-1.3-0.4s-0.6-0.3-0.8-0.4c-0.5-0.3-0.7-0.899-0.7-1.6
			s0.3-1.3,0.8-1.6c0.5-0.4,1.2-0.601,1.9-0.601c0.5,0,1,0.101,1.5,0.2c0.5,0.2,0.9,0.4,1.3,0.7l-0.7,1
			c-0.199-0.2-0.5-0.4-0.899-0.5C96.475,3.85,96.075,3.85,95.775,3.85z"/>
		<path fill="#09988B" d="M100.275,3.45c-0.2-0.2-0.2-0.3-0.2-0.6c0-0.2,0.101-0.4,0.2-0.601c0.2-0.199,0.3-0.199,0.6-0.199
			c0.301,0,0.4,0.1,0.601,0.199c0.2,0.2,0.2,0.301,0.2,0.601c0,0.2-0.101,0.399-0.2,0.6c-0.2,0.2-0.3,0.2-0.601,0.2
			C100.575,3.65,100.375,3.65,100.275,3.45z M101.375,10.55h-1.199v-5.9h1.199V10.55z"/>
		<path fill="#09988B" d="M104.475,7.35v3.2h-1.2v-5.9h1.2v1.1c0.2-0.399,0.399-0.6,0.8-0.8s0.7-0.3,1.2-0.3
			c0.899,0,1.6,0.4,1.899,1.1c0.601-0.8,1.301-1.1,2.2-1.1c0.7,0,1.2,0.2,1.601,0.6c0.399,0.4,0.6,1,0.6,1.801v3.6h-1.2v-3.2
			c0-1.1-0.399-1.6-1.3-1.6c-0.4,0-0.8,0.1-1.1,0.399c-0.301,0.301-0.5,0.7-0.5,1.2v3.3h-1.2V7.55c0-0.601-0.101-1-0.3-1.2
			c-0.2-0.3-0.5-0.4-0.9-0.4s-0.8,0.101-1.1,0.4C104.575,6.35,104.475,6.75,104.475,7.35z"/>
		<path fill="#09988B" d="M117.475,4.55c0.8,0,1.5,0.3,2,0.8c0.6,0.5,0.8,1.3,0.8,2.2c0,0.899-0.3,1.6-0.8,2.199
			c-0.601,0.601-1.2,0.801-1.9,0.801s-1.399-0.301-2-1v3h-1.2v-8h1.2v1C116.075,4.95,116.775,4.55,117.475,4.55z M115.575,7.55
			c0,0.6,0.2,1,0.5,1.399c0.3,0.4,0.7,0.5,1.2,0.5s0.9-0.2,1.3-0.5c0.4-0.399,0.5-0.8,0.5-1.399c0-0.601-0.2-1-0.5-1.4
			c-0.399-0.4-0.8-0.6-1.3-0.6s-0.9,0.199-1.2,0.6S115.575,7.05,115.575,7.55z"/>
		<path fill="#09988B" d="M122.975,10.55h-1.2v-8.2h1.2V10.55z"/>
		<path fill="#09988B" d="M130.275,8.15h-4.6c0,0.4,0.199,0.8,0.6,1c0.4,0.3,0.8,0.4,1.2,0.4c0.7,0,1.3-0.2,1.7-0.7l0.699,0.8
			c-0.6,0.7-1.5,1-2.5,1c-0.8,0-1.5-0.3-2.1-0.8s-0.9-1.3-0.9-2.2s0.301-1.7,0.9-2.2s1.3-0.8,2.1-0.8c0.801,0,1.5,0.2,2,0.7
			c0.601,0.5,0.801,1.1,0.801,2v0.8H130.275z M125.675,7.15h3.399c0-0.5-0.2-0.9-0.5-1.1c-0.3-0.301-0.7-0.4-1.1-0.4
			c-0.5,0-0.9,0.1-1.2,0.4C125.875,6.35,125.675,6.65,125.675,7.15z"/>
	</g>
</g>
</svg>
