<?xml version="1.0" encoding="utf-8"?>
<!-- Generator: Adobe Illustrator 19.2.1, SVG Export Plug-In . SVG Version: 6.00 Build 0)  -->
<svg version="1.1" id="Capa_1" xmlns="http://www.w3.org/2000/svg" xmlns:xlink="http://www.w3.org/1999/xlink" x="0px" y="0px"
	 viewBox="0 0 800 245" style="enable-background:new 0 0 800 245;" xml:space="preserve">
<style type="text/css">
	.st0{fill:#3A8C80;}
	.st1{fill:#74AB59;}
	.st2{fill:#72B1A8;}
	.st3{fill:#424243;}
</style>
<g>
	<g>
		<g>
			<g>
				<g>
					<path class="st0" d="M37.3,162.7c-12,12.6-7.1,35,4.3,47.6c2-10.4,7.9-19.8,16.8-25.2c13.3-8,26.4-8.8,38.9-17.6
						c4.1,10.1-3.6,14.5-8.5,17.6c-8.8,5.6-15.4,13-13.5,22.1c1.9,9.2,7,17.1,16.5,22.5c11.7,6.8,29.3,10.8,42.6,10.8
						c29.1,0.2,60.3-10.5,80.3-31.6c17.3-18.3,26-44,14.9-68.4c-5.7-12.6-16.3-22.7-27.9-30.1c-7.9-5-19.9-10.9-28-15.4
						c-31.3-17.3-51.6-48.6-46-85.3c-19.3,4.1-31.2,14.9-44,29.5c-9.2,10.4-18.1,18-32.1,19.7c8.3,9.8,25.5,9.5,36.1,4
						c0.8,8.1-5,8.5-11.2,11.4c-8.3,3.7-11.9,14-13.5,22.2c-2.8-0.2-2.8-5.7-2.8-7.2c0.1-4.2,0.8-8.9,3.9-12
						c-12.6,4-22.5,4.9-34.3,11.6c-7.6,4.3-17.3,15.3-20.8,23.4c4.6-0.5,10.6-0.5,14.4,2.5c11.9,9.4-10.6,20-11.6,30.4
						c21.8-12.9,45.1,2.8,67.9-10.2c1.9,4.2,2,9-2.4,11.1c-4.1,1.9-8.9,2.6-12.5,5.5c-3.9,3.2-6.2,7.7-8.9,11.8c-2,3-3.4,4.3-7,3.6
						c4.4-5.1,6-11.1,9.4-16.7C49.6,153.2,43.4,155.9,37.3,162.7z M196.9,158.4c-0.2,13.1-4.9,29.5-15.1,38.7
						c-8.9,8.8-20.9,14.9-31,18.7c1.1-6,4-9.4,7.8-14c3.8-4.6,8.4-10.6,5.2-16.8c-5.8-11.6-23.1-2.8-31.7-0.9
						c-5.3,1.2-13.7,3-18-1.6c-3.7-3.9-1.7-10.2-2.9-15.2c-0.8-3.3-10-4.4-6.4-10.4c2.9-5,13.7-1.5,17.5-7.1c0.5-0.6-3.3,1-7.8,1.2
						c-3.6,0.2-7.3,0.1-10.8-1c-8.5-2.7-2.8-7.6-4.2-13.5c-0.9-3.6-5.7-3.9-8.6-5c-5.8-2.1-6.4-5-3.8-10.3
						c5.6-11.4,12.7-20.6,10.7-33.9c-2.3-15.6,2.1-31.5,6.7-46.2c5,17.2,13.3,30.8,26.7,43c13.1,11.9,28.7,19.7,42.7,30.4
						c6,4.6,11.3,9.4,15.5,15.9C194.4,138.3,197.1,149.2,196.9,158.4C196.8,167.4,197.1,151,196.9,158.4z"/>
				</g>
			</g>
			<g>
				<path class="st0" d="M182.3,8.3c-12.9,25.9,28.3,49.9,42.5,57.1c11,5.4,17.7,9.2,24.2,15.8C241.9,46.4,218.9,16.1,182.3,8.3z"/>
			</g>
			<g>
				<g>
					<path class="st0" d="M149,56.3C149.1,56.3,149.1,56.3,149,56.3L149,56.3z"/>
				</g>
				<g>
					<path class="st0" d="M168.1,5c-7.1-2.3-25.9-1.3-27.2,7c-2.1,12.7-0.3,27,5.4,38.6c9.3,19,27.5,31.3,46.6,39.2
						c33.5,13.8,46.6,25.7,54.6,39.8C268.5,72.7,149.3,71.2,168.1,5z"/>
				</g>
			</g>
			<g>
				<path class="st0" d="M39.4,98.8C39.4,98.8,39.4,98.8,39.4,98.8C39.2,99.1,39,99.4,39.4,98.8z"/>
			</g>
			<g>
				<path class="st0" d="M127.4,102.4c-15.6,11.6-16.2-0.8-19.9,3.4c7.3,12.4,23.1,5.3,26.7-1.1
					C134.9,103.2,130.3,100.5,127.4,102.4z"/>
			</g>
			<g>
				<path class="st1" d="M74,90.5c1.7,7.7,13.9,5.3,12.3-2.4C84.6,80.4,72.4,82.8,74,90.5z"/>
			</g>
			<g>
				<path class="st1" d="M44.4,93c1,5.7,9.9,4.1,8.9-1.7C52.2,85.7,43.3,87.3,44.4,93z"/>
			</g>
			<g>
				<path class="st1" d="M68.8,163.8c1.9,7.5,13.6,4.5,11.7-3C78.5,153.3,66.9,156.3,68.8,163.8z"/>
			</g>
			<g>
				<path class="st0" d="M39.4,98.8C39.4,98.8,39.4,98.8,39.4,98.8C39.9,98.2,39.7,98.5,39.4,98.8z"/>
			</g>
			<g>
				<path class="st2" d="M63,202.8c-0.6,0.7-4.8,7.5-5.8,21c-2.5-3.7-4.6-14.9-0.1-24.1c-15.4,8.7-6.8,27.1,3,35.1
					C77.2,223.4,72.4,211.6,63,202.8z"/>
			</g>
			<g>
				<path class="st2" d="M95.1,197.4c0.1,1,4.6,10.9,14,20.4c-4.5-0.1-13.6-7.4-17.9-16c-1.5,14.4,16.4,25.4,29,22
					C121.3,203.3,107.9,197.2,95.1,197.4z"/>
			</g>
			<g>
				<path class="st2" d="M30.5,155.4c0-0.1,0.1-0.3,0.2-0.7c-8.7-0.9-20,10.3-21,9.7c1.3-7.4,9.8-13.1,16.1-14.8
					c-8.5-1.2-16.6,3.3-20.4,11.6c-1.4,3.1-1.4,8.7-0.6,12.3c2.1,0.1,3.2,0.5,5.2,0.2C20.3,172.5,28.2,166.7,30.5,155.4z"/>
			</g>
			<g>
				<path class="st2" d="M24.7,63.1c3.7-3.1,8.7-4.5,13.1-4.2c2.7,0.2,4.6,0.6,6.1,1c-6-8.6-22.5-7.2-30.7,7c0,0,9.9,16.9,27.9,6.7
					c5.3-3,8.7-1.6,8.7-1.6C48.2,63,32.8,62.9,24.7,63.1z"/>
			</g>
			<g>
				<path class="st2" d="M62.2,132.8c-0.2-0.9-5.3-9.2-14.9-16.7c4-0.4,13,5.2,17.8,12.3c4-15.2-17.5-23.9-28.4-19.4
					C38.1,127.5,50.7,134.4,62.2,132.8z"/>
			</g>
		</g>
	</g>
	<g>
		<path class="st3" d="M398.6,87.2c7.8-1.5,16-0.1,23,3.6c7.5,4.1,13.5,11,16.1,19.1c2.5,7.2,2.3,15.2-0.4,22.3
			c-3.4,9.1-11.1,16.5-20.2,19.9c-8.9,3.4-19.2,2.8-27.7-1.5c-7.1-3.5-12.9-9.5-16.2-16.7c-3.3-7.4-3.8-16-1.2-23.6
			C375.8,98.4,386.5,89.4,398.6,87.2 M400.3,103.3c-6.2,1.6-11.2,6.8-12.6,13c-2.1,8.1,2.5,17.3,10.2,20.4
			c7.7,3.4,17.6,0.5,21.9-6.7c4.7-7.2,3.2-17.7-3.5-23.1C412.1,103.1,405.8,101.9,400.3,103.3"/>
		<path class="st3" d="M300.7,87.9c6.5,0.1,13,0,19.6,0c4.9,7.8,9.5,15.7,14.4,23.6c4.9-7.8,9.6-15.7,14.5-23.6
			c6.5,0.1,13.1,0,19.6,0c-8.5,13.8-17.2,27.4-25.7,41.2c-0.2,7.9,0,15.9-0.1,23.9c-5.5,0-11.1,0-16.6,0c-0.1-7.9,0.1-15.9-0.1-23.9
			c-7.9-13.1-16.2-26-24.2-39c-0.4-0.7-0.9-1.3-1.4-1.9V87.9z"/>
		<path class="st3" d="M451.4,87.9c5.6,0,11.1,0,16.7,0c0,12,0,23.9,0,35.9c0,4,0.9,8.3,3.9,11.2c2.9,2.8,7.2,3.5,11.1,3.1
			c3.5-0.3,7-1.8,9-4.7c2-3,2.6-6.6,2.6-10.2c0-11.8,0-23.5,0-35.3c5.5,0.1,11.1,0,16.6,0.1c0,12.4,0,24.7,0,37
			c0,8.1-2.9,16.6-9.1,22.1c-5.8,5.3-13.8,7.4-21.4,7.2c-7.4,0-15.1-2.3-20.6-7.5c-6-5.5-8.7-13.8-8.7-21.8
			C451.3,112.6,451.4,100.2,451.4,87.9"/>
		<path class="st3" d="M520.7,87.9c6-0.2,12.1,0.1,18.1-0.1c5.5,14.5,10.9,29.1,16.3,43.6c5.8-14.4,10.9-29.1,16.7-43.6
			c6,0.1,12,0,18.1,0c-8.8,21.7-17.6,43.4-26.4,65.1c-5.5,0-11,0-16.5,0C538.1,131.3,529.4,109.6,520.7,87.9"/>
		<path class="st3" d="M600.1,152.9c0.1-21.7,0-43.4,0-65.1c16.7,0.1,33.3,0,50,0.1c0,5.4,0,10.8,0,16.2
			c-11.1,0.1-22.2-0.1-33.3,0.1c0,3.1,0.1,6.3-0.1,9.4c9.1-0.2,18.3-0.1,27.5,0c0.1,5,0,10.1,0,15.1c-9.1,0.1-18.3-0.1-27.4,0.1
			c0.1,2.7,0.1,5.5,0,8.3c11.1,0.1,22.2,0,33.4,0V153C633.4,153,616.8,153,600.1,152.9"/>
		<path class="st3" d="M664.5,152.9c0.1-21.7,0-43.4,0-65.1c7.5,0.1,14.9,0,22.4,0.1c6,0,12.1-0.4,18,1.4c7.4,2.1,13.6,7.5,17,14.4
			c4.2,8.8,4.6,19.1,1.9,28.4c-2.4,8.2-8.4,15.5-16.5,18.5c-4.4,1.8-9.2,2.4-13.9,2.3C683.8,152.9,674.2,153,664.5,152.9
			 M681.2,104.1c0,10.9,0,21.8,0,32.7c4.3,0,8.6,0,12.9,0c4-0.1,8.2-1.5,10.8-4.7c3.1-3.6,3.9-8.6,3.8-13.2
			c-0.2-4.7-2.1-9.8-6.2-12.5c-2.8-1.9-6.2-2.6-9.6-2.5C689,104.1,685.1,104,681.2,104.1"/>
		<path class="st3" d="M752.6,87.9c5.5,0,11,0,16.5,0c8.8,21.6,17.5,43.3,26.2,64.9v0.2c-6.1,0-12.2,0.1-18.2-0.1
			c-1-3.2-2.4-6.3-3.4-9.4c-8.6-0.1-17.2-0.1-25.8,0c-1,3.2-2.4,6.3-3.5,9.4c-6.1,0.1-12.2,0-18.2,0
			C735,131.3,743.8,109.5,752.6,87.9 M753.6,128.4c4.8-0.2,9.6-0.1,14.4-0.1c-2.5-6.3-4.7-12.6-7.1-18.9
			C758.2,115.6,756.1,122.2,753.6,128.4"/>
	</g>
</g>
</svg>
