<?xml version="1.0" encoding="utf-8"?>
<!-- Generator: Adobe Illustrator 16.0.0, SVG Export Plug-In . SVG Version: 6.00 Build 0)  -->
<!DOCTYPE svg PUBLIC "-//W3C//DTD SVG 1.1//EN" "http://www.w3.org/Graphics/SVG/1.1/DTD/svg11.dtd">
<svg version="1.1" id="Layer_1" xmlns="http://www.w3.org/2000/svg" xmlns:xlink="http://www.w3.org/1999/xlink" x="0px" y="0px"
	 width="31px" height="31px" viewBox="0 0 31 31" enable-background="new 0 0 31 31" xml:space="preserve">
<g>
	<circle fill="#FFFFFF" stroke="#CCCCCC" stroke-miterlimit="10" cx="-444.923" cy="-245.166" r="15.333"/>
	<path fill="#52B551" d="M-446.345-244.375c0.475,1.833,3.324,1.098,2.845-0.744C-443.979-246.949-446.822-246.215-446.345-244.375"
		/>
	<path fill="#44BBB1" d="M-452.369-235.98c0.308,0.297,4.422,2.382,10.118,3.017c-1.516,1.146-6.511,1.18-10.222-0.503
		c3.375,5.188,12.252,4.064,15.5-0.445C-442.092-241.031-448.174-239.469-452.369-235.98"/>
	<path fill="#44BBB1" d="M-437.451-254.685c-0.301-0.289-4.32-2.327-9.887-2.947c1.481-1.121,6.363-1.153,9.989,0.491
		c-3.298-5.07-11.973-3.971-15.148,0.436C-447.494-249.749-441.55-251.274-437.451-254.685"/>
	<path fill="#44BBB1" d="M-432.623-247.049c0.854,1.047,1.209,2.449,1.112,3.664c-0.065,0.763-0.192,1.271-0.305,1.678
		c2.409-1.637,2.106-6.215-1.81-8.573c0,0-4.751,2.672-2.006,7.716c0.814,1.497,0.416,2.421,0.416,2.421
		C-432.709-240.514-432.627-244.788-432.623-247.049"/>
	<path fill="#44BBB1" d="M-457.256-242.941c-1.057-1.295-1.496-3.031-1.376-4.536c0.081-0.944,0.238-1.575,0.377-2.079
		c-2.984,2.027-2.609,7.697,2.24,10.617c0,0,5.883-3.309,2.484-9.554c-1.009-1.854-0.516-2.998-0.516-2.998
		C-457.148-251.032-457.25-245.741-457.256-242.941"/>
</g>
<g>
	<path fill="#52B551" d="M14.077,15.871c0.475,1.833,3.324,1.098,2.846-0.744C16.444,13.297,13.6,14.031,14.077,15.871"/>
	<path fill="#44BBB1" d="M8.35,24.784c0.308,0.297,4.422,2.382,10.117,3.017c-1.516,1.146-6.511,1.18-10.222-0.503
		c3.375,5.188,12.253,4.064,15.501-0.445C18.627,19.733,12.544,21.296,8.35,24.784"/>
	<path fill="#44BBB1" d="M23.268,6.08c-0.301-0.289-4.32-2.327-9.887-2.947c1.481-1.121,6.364-1.153,9.989,0.491
		C20.072-1.446,11.397-0.347,8.222,4.06C13.224,11.016,19.168,9.49,23.268,6.08"/>
	<path fill="#44BBB1" d="M28.096,13.716c0.854,1.047,1.209,2.449,1.111,3.664c-0.064,0.763-0.191,1.271-0.305,1.678
		c2.41-1.637,2.107-6.215-1.809-8.573c0,0-4.752,2.672-2.006,7.716c0.814,1.497,0.416,2.421,0.416,2.421
		C28.01,20.251,28.092,15.977,28.096,13.716"/>
	<path fill="#44BBB1" d="M3.462,17.823c-1.057-1.295-1.496-3.031-1.376-4.536c0.081-0.944,0.238-1.575,0.377-2.079
		c-2.984,2.027-2.609,7.697,2.24,10.617c0,0,5.883-3.309,2.484-9.554c-1.009-1.854-0.516-2.998-0.516-2.998
		C3.57,9.733,3.468,15.024,3.462,17.823"/>
</g>
</svg>
