<?xml version="1.0" encoding="utf-8"?>
<!-- Generator: Adobe Illustrator 19.2.1, SVG Export Plug-In . SVG Version: 6.00 Build 0)  -->
<svg version="1.1" id="Capa_1" xmlns="http://www.w3.org/2000/svg" xmlns:xlink="http://www.w3.org/1999/xlink" x="0px" y="0px"
	 viewBox="0 0 494.6 67.7" style="enable-background:new 0 0 494.6 67.7;" xml:space="preserve">
<style type="text/css">
	.st0{fill:#424243;}
</style>
<g>
	<g>
		<path class="st0" d="M97.9,0.6c7.8-1.5,16-0.1,23,3.6c7.5,4.1,13.5,11,16.1,19.1c2.5,7.2,2.3,15.2-0.4,22.3
			c-3.4,9.1-11.1,16.5-20.2,19.9c-8.9,3.4-19.2,2.8-27.7-1.5c-7.1-3.5-12.9-9.5-16.2-16.7c-3.3-7.4-3.8-16-1.2-23.6
			C75.1,11.8,85.8,2.8,97.9,0.6 M99.6,16.7c-6.2,1.6-11.2,6.8-12.6,13c-2.1,8.1,2.5,17.3,10.2,20.4c7.7,3.4,17.6,0.5,21.9-6.7
			c4.7-7.2,3.2-17.7-3.5-23.1C111.4,16.5,105.1,15.3,99.6,16.7"/>
		<path class="st0" d="M0,1.3c6.5,0.1,13,0,19.6,0C24.5,9.1,29.1,17,34,24.9c4.9-7.8,9.6-15.7,14.5-23.6c6.5,0.1,13.1,0,19.6,0
			c-8.5,13.8-17.2,27.4-25.7,41.2c-0.2,7.9,0,15.9-0.1,23.9c-5.5,0-11.1,0-16.6,0c-0.1-7.9,0.1-15.9-0.1-23.9
			c-7.9-13.1-16.2-26-24.2-39C1,2.8,0.5,2.2,0,1.6L0,1.3L0,1.3z"/>
		<path class="st0" d="M150.7,1.3c5.6,0,11.1,0,16.7,0c0,12,0,23.9,0,35.9c0,4,0.9,8.3,3.9,11.2c2.9,2.8,7.2,3.5,11.1,3.1
			c3.5-0.3,7-1.8,9-4.7c2-3,2.6-6.6,2.6-10.2c0-11.8,0-23.5,0-35.3c5.5,0.1,11.1,0,16.6,0.1c0,12.4,0,24.7,0,37
			c0,8.1-2.9,16.6-9.1,22.1c-5.8,5.3-13.8,7.4-21.4,7.2c-7.4,0-15.1-2.3-20.6-7.5c-6-5.5-8.7-13.8-8.7-21.8
			C150.6,26,150.7,13.6,150.7,1.3"/>
		<path class="st0" d="M220,1.3c6-0.2,12.1,0.1,18.1-0.1c5.5,14.5,10.9,29.1,16.3,43.6c5.8-14.4,10.9-29.1,16.7-43.6
			c6,0.1,12,0,18.1,0c-8.8,21.7-17.6,43.4-26.4,65.1c-5.5,0-11,0-16.5,0C237.4,44.7,228.7,23,220,1.3"/>
		<path class="st0" d="M299.4,66.3c0.1-21.7,0-43.4,0-65.1c16.7,0.1,33.3,0,50,0.1c0,5.4,0,10.8,0,16.2c-11.1,0.1-22.2-0.1-33.3,0.1
			c0,3.1,0.1,6.3-0.1,9.4c9.1-0.2,18.3-0.1,27.5,0c0.1,5,0,10.1,0,15.1c-9.1,0.1-18.3-0.1-27.4,0.1c0.1,2.7,0.1,5.5,0,8.3
			c11.1,0.1,22.2,0,33.4,0v15.9C332.7,66.4,316.1,66.4,299.4,66.3"/>
		<path class="st0" d="M363.8,66.3c0.1-21.7,0-43.4,0-65.1c7.5,0.1,14.9,0,22.4,0.1c6,0,12.1-0.4,18,1.4c7.4,2.1,13.6,7.5,17,14.4
			c4.2,8.8,4.6,19.1,1.9,28.4c-2.4,8.2-8.4,15.5-16.5,18.5c-4.4,1.8-9.2,2.4-13.9,2.3C383.1,66.3,373.5,66.4,363.8,66.3 M380.5,17.5
			c0,10.9,0,21.8,0,32.7c4.3,0,8.6,0,12.9,0c4-0.1,8.2-1.5,10.8-4.7c3.1-3.6,3.9-8.6,3.8-13.2c-0.2-4.7-2.1-9.8-6.2-12.5
			c-2.8-1.9-6.2-2.6-9.6-2.5C388.3,17.5,384.4,17.4,380.5,17.5"/>
		<path class="st0" d="M451.9,1.3c5.5,0,11,0,16.5,0c8.8,21.6,17.5,43.3,26.2,64.9v0.2c-6.1,0-12.2,0.1-18.2-0.1
			c-1-3.2-2.4-6.3-3.4-9.4c-8.6-0.1-17.2-0.1-25.8,0c-1,3.2-2.4,6.3-3.5,9.4c-6.1,0.1-12.2,0-18.2,0
			C434.3,44.7,443.1,22.9,451.9,1.3 M452.9,41.8c4.8-0.2,9.6-0.1,14.4-0.1c-2.5-6.3-4.7-12.6-7.1-18.9
			C457.5,29,455.4,35.6,452.9,41.8"/>
	</g>
</g>
</svg>
