<?xml version="1.0" encoding="utf-8"?>
<!-- Generator: Adobe Illustrator 16.0.3, SVG Export Plug-In . SVG Version: 6.00 Build 0)  -->
<!DOCTYPE svg PUBLIC "-//W3C//DTD SVG 1.1//EN" "http://www.w3.org/Graphics/SVG/1.1/DTD/svg11.dtd">
<svg version="1.1" id="Layer_1" xmlns="http://www.w3.org/2000/svg" xmlns:xlink="http://www.w3.org/1999/xlink" x="0px" y="0px"
	 width="45px" height="80px" viewBox="0 0 45 80" enable-background="new 0 0 45 80" xml:space="preserve">
<path fill="#303030" d="M28.353,18.292H1.346c-0.604,0-1.093,0.49-1.093,1.093v37.471c0,0.519,0.362,0.971,0.872,1.071
	c3.834,0.748,7.917,1.112,12.482,1.112c2.051,0,4.179-0.077,6.403-0.228c0.812-0.057,1.289-0.938,0.88-1.643
	c-0.209-0.359-0.608-0.566-1.023-0.539c-2.176,0.148-4.256,0.223-6.26,0.223c-4.008,0-7.76-0.305-11.169-0.905v-35.47H27.26V36.07
	c0,0.604,0.489,1.093,1.093,1.093s1.093-0.489,1.093-1.093V19.385C29.446,18.782,28.957,18.292,28.353,18.292"/>
<path fill="#303030" d="M38.64,46.314c-0.219-1.014-0.831-1.9-1.626-2.563l-4.58-3.817c-0.795-0.664-1.806-1.029-2.846-1.029
	c-0.048,0-0.095,0.007-0.143,0.008c-0.782,0.025-1.534,0.246-2.186,0.645c-0.735,0.449-1.345,1.115-1.732,1.959
	c-0.85,1.854-0.229,4.062,1.339,5.367l0.394,0.329l0.712,0.593c0.451,0.377,1.02,0.582,1.606,0.582c0.735,0,1.435-0.322,1.911-0.884
	l2.741-3.226l1.519,1.266c0.462,0.385,0.746,0.932,0.801,1.536c0.033,0.363-0.02,0.72-0.149,1.048
	c-0.17,0.426,0.005,0.914,0.357,1.208c0.548,0.456,1.405,0.272,1.671-0.39C38.756,48.129,38.836,47.221,38.64,46.314 M29.65,46.357
	l-0.204-0.17l-1.313-1.094c-0.959-0.8-1.089-2.232-0.29-3.192c0.398-0.478,0.979-0.757,1.603-0.796
	c0.049-0.002,0.094-0.016,0.143-0.016c0.528,0,1.043,0.186,1.446,0.522l1.518,1.266L29.65,46.357z"/>
<path fill="#303030" d="M36.301,52.208c-0.163-0.257-0.349-0.497-0.56-0.716c-0.811-0.833-1.938-1.355-3.188-1.355h-1.786h-1.32
	h-0.045h-1.365H27.26h-0.845c-2.454,0-4.452,1.996-4.452,4.451c0,0.66,0.154,1.281,0.412,1.844c0.394,0.856,1.05,1.556,1.865,2.017
	c0.646,0.366,1.381,0.592,2.175,0.592h6.138c2.454,0,4.452-1.997,4.452-4.452c0-0.563-0.117-1.1-0.309-1.597
	C36.589,52.715,36.458,52.454,36.301,52.208 M24.15,54.588c0-1.248,1.017-2.266,2.266-2.266h0.845h1.131v4.531h-1.976
	c-0.626,0-1.193-0.254-1.603-0.666C24.404,55.777,24.15,55.213,24.15,54.588 M32.553,56.854h-1.976v-4.531h0.148h1.827
	c0.031,0,0.061,0.008,0.091,0.009c0.306,0.013,0.594,0.084,0.856,0.205c0.427,0.198,0.777,0.526,1.01,0.933
	c0.191,0.332,0.31,0.711,0.31,1.119C34.82,55.838,33.802,56.854,32.553,56.854"/>
<path fill="#303030" d="M24.226,24.214c0-0.604-0.489-1.093-1.093-1.093H6.146c-0.604,0-1.093,0.489-1.093,1.093
	c0,0.604,0.489,1.093,1.093,1.093h16.987C23.737,25.308,24.226,24.818,24.226,24.214"/>
<path fill="#303030" d="M6.146,51.321c-0.604,0-1.093,0.489-1.093,1.093c0,0.604,0.488,1.094,1.093,1.094h13.198
	c0.604,0,1.093-0.489,1.093-1.094c0-0.604-0.489-1.093-1.093-1.093H6.146z"/>
<path fill="#49B6AC" d="M44.581,19.831l-1.352-1.367c-0.225-0.228-0.589-0.228-0.817-0.005l-5.097,5.058l-2.213-2.227
	c-0.225-0.229-0.588-0.229-0.817-0.005l-1.367,1.357c-0.228,0.224-0.228,0.588-0.004,0.817l3.973,4.002
	c0.225,0.229,0.59,0.229,0.817,0.005l6.872-6.818C44.8,20.419,44.805,20.055,44.581,19.831"/>
</svg>
