<?xml version="1.0" encoding="utf-8"?>
<!-- Generator: Adobe Illustrator 16.0.3, SVG Export Plug-In . SVG Version: 6.00 Build 0)  -->
<!DOCTYPE svg PUBLIC "-//W3C//DTD SVG 1.1//EN" "http://www.w3.org/Graphics/SVG/1.1/DTD/svg11.dtd">
<svg version="1.1" id="Layer_1" xmlns="http://www.w3.org/2000/svg" xmlns:xlink="http://www.w3.org/1999/xlink" x="0px" y="0px"
	 width="45px" height="80px" viewBox="0 0 45 80" enable-background="new 0 0 45 80" xml:space="preserve">
<path fill="#303030" d="M3.02,46.623V22.455h21.689v21.523c0,0.563,0.455,1.018,1.018,1.018c0.561,0,1.017-0.455,1.017-1.018V18.854
	c0-1.761-1.428-3.188-3.188-3.188H4.174c-1.761,0-3.188,1.428-3.188,3.188v34.264c0,1.762,1.428,3.189,3.188,3.189h13.437
	c0.561,0,1.017-0.455,1.017-1.018c0-0.561-0.456-1.017-1.017-1.017H4.174c-0.638,0-1.154-0.517-1.154-1.154v-4.464h17.6
	c0.561,0,1.017-0.455,1.017-1.018c0-0.561-0.456-1.016-1.017-1.016H3.02z M3.02,18.854c0-0.637,0.518-1.154,1.154-1.154h19.38
	c0.638,0,1.155,0.517,1.155,1.154v1.566H3.02V18.854z"/>
<path fill="#303030" d="M13.112,51.464c0,0.912,0.741,1.654,1.654,1.654c0.912,0,1.654-0.742,1.654-1.654s-0.742-1.654-1.654-1.654
	C13.853,49.81,13.112,50.552,13.112,51.464"/>
<path fill="#303030" d="M42.143,57.566l-3.551-0.811c-0.215-0.041-0.432-0.062-0.647-0.062c-0.609,0-1.212,0.164-1.742,0.481
	l-10.19,6.098c-0.625,0.375-1.337,0.568-2.057,0.568c-0.231,0-0.463-0.02-0.694-0.061l-11.583-2.038
	c-0.3-0.054-0.562-0.22-0.735-0.47c-0.175-0.25-0.241-0.555-0.188-0.854c0.099-0.546,0.577-0.936,1.121-0.936
	c0.043,0,0.087,0.002,0.131,0.007l8.732,1.014c0.15,0.018,0.302,0.027,0.453,0.027c0.729,0,1.448-0.204,2.073-0.594l6.433-4.006
	c0.624-0.39,1.094-1.012,1.216-1.737c0.23-1.368-0.628-2.529-1.797-2.853c-0.218-0.061-0.442-0.091-0.666-0.091
	c-0.46,0-0.916,0.126-1.313,0.369l-0.062,0.038l-0.379,0.232l-0.379,0.233l-0.518,0.317l-0.38,0.232l-0.379,0.232l-1.6,0.982
	c-0.14,0.086-0.293,0.127-0.445,0.127c-0.238,0-0.472-0.101-0.638-0.291c-0.164-0.187-0.236-0.424-0.204-0.672
	c0.032-0.246,0.165-0.457,0.372-0.595l2.515-1.675l0.379-0.252l0.38-0.252l0.518-0.344l0.379-0.254l0.379-0.252l2.379-1.584
	c0.286-0.189,0.59-0.354,0.904-0.49c0.501-0.215,1.039-0.322,1.578-0.322c0.842,0,1.686,0.259,2.4,0.761
	c1.452,1.021,4.591,2.224,6.32,2.636c0.072,0.018,0.145,0.025,0.216,0.025c0.44,0,0.833-0.313,0.907-0.766
	c0.076-0.463-0.209-0.92-0.665-1.026c-1.519-0.356-4.455-1.467-5.729-2.362c-1.024-0.72-2.24-1.091-3.453-1.091
	c-0.783,0-1.567,0.155-2.299,0.472c-0.414,0.178-0.814,0.396-1.19,0.646l-1.368,0.911l-0.379,0.252l-0.379,0.253l-0.518,0.345
	l-0.38,0.252l-0.475,0.316l-3.431,2.283c-0.642,0.427-1.067,1.109-1.17,1.875c-0.065,0.502,0.015,1.008,0.221,1.459
	c0.06,0.133,0.13,0.259,0.211,0.38c0.091,0.136,0.197,0.261,0.314,0.379c0.153,0.157,0.322,0.301,0.518,0.42
	c0.061,0.037,0.125,0.065,0.188,0.097c0.362,0.182,0.757,0.274,1.156,0.274c0.436,0,0.873-0.108,1.274-0.3
	c0.094-0.045,0.188-0.092,0.276-0.146l1.338-0.821l0.653-0.4l0.491-0.301l1.104-0.68c0.109-0.066,0.231-0.101,0.355-0.101
	c0.061,0,0.122,0.008,0.183,0.024c0.185,0.052,0.334,0.174,0.423,0.343c0.162,0.313,0.057,0.706-0.244,0.893l-6.508,4.054
	c-0.334,0.209-0.719,0.317-1.108,0.317c-0.081,0-0.162-0.005-0.243-0.014l-8.585-0.998c-0.124-0.015-0.248-0.021-0.371-0.021
	c-1.396,0-2.693,0.906-3.007,2.286c-0.212,0.937,0.029,1.896,0.671,2.628c0.467,0.531,1.131,0.852,1.828,0.975l11.461,2.017
	c0.335,0.06,0.673,0.088,1.01,0.088c1.048,0,2.083-0.282,2.994-0.827l10.189-6.099c0.244-0.146,0.523-0.222,0.805-0.222
	c0.099,0,0.2,0.009,0.299,0.029l3.55,0.81c0.059,0.011,0.118,0.017,0.175,0.017c0.429,0,0.811-0.303,0.896-0.738
	C42.96,58.14,42.637,57.662,42.143,57.566"/>
<path fill="#49B6AC" d="M43.848,17.206l-1.352-1.367c-0.224-0.228-0.588-0.228-0.817-0.005l-5.097,5.058l-2.213-2.227
	c-0.224-0.229-0.588-0.229-0.817-0.005l-1.366,1.357c-0.229,0.224-0.229,0.588-0.005,0.817l3.974,4.002
	c0.224,0.229,0.589,0.229,0.816,0.005l6.872-6.818C44.068,17.794,44.073,17.43,43.848,17.206"/>
</svg>
