<?xml version="1.0" encoding="utf-8"?>
<!-- Generator: Adobe Illustrator 19.2.1, SVG Export Plug-In . SVG Version: 6.00 Build 0)  -->
<svg version="1.1" id="Capa_1" xmlns="http://www.w3.org/2000/svg" xmlns:xlink="http://www.w3.org/1999/xlink" x="0px" y="0px"
	 viewBox="0 0 57.5 39.5" style="enable-background:new 0 0 57.5 39.5;" xml:space="preserve">
<style type="text/css">
	.st0{fill:#4AB7AD;}
</style>
<g>
	<g>
		<path class="st0" d="M12.6,14.4c6.9,0,12.6,5.6,12.6,12.6s-5.6,12.6-12.6,12.6S0.1,33.9,0.1,26.9L0,25.1C0,11.3,11.3,0,25.1,0v7.2
			c-4.8,0-9.3,1.9-12.7,5.3c-0.7,0.7-1.2,1.3-1.8,2.1C11.3,14.4,12,14.4,12.6,14.4z M44.9,14.4c6.9,0,12.6,5.6,12.6,12.6
			s-5.6,12.6-12.6,12.6s-12.6-5.6-12.6-12.6l-0.1-1.8C32.3,11.3,43.6,0,57.4,0v7.2c-4.8,0-9.3,1.9-12.7,5.3
			c-0.7,0.7-1.2,1.3-1.8,2.1C43.6,14.4,44.3,14.4,44.9,14.4z"/>
	</g>
</g>
</svg>
